<?xml version="1.0" encoding="utf-8"?>
<!-- Svg Vector Icons : http://www.onlinewebfonts.com/icon -->
<!DOCTYPE svg PUBLIC "-//W3C//DTD SVG 1.1//EN" "http://www.w3.org/Graphics/SVG/1.1/DTD/svg11.dtd">
<svg version="1.1" xmlns="http://www.w3.org/2000/svg" xmlns:xlink="http://www.w3.org/1999/xlink" x="0px" y="0px" viewBox="0 0 1000 1000" enable-background="new 0 0 1000 1000" xml:space="preserve">
<metadata> Svg Vector Icons : http://www.onlinewebfonts.com/icon </metadata>
<g><path d="M867.5,377.5h-245v-245C622.5,65.1,567.4,10,500,10c-67.4,0-122.5,55.1-122.5,122.5v245h-245C65.1,377.5,10,432.6,10,500c0,67.4,55.1,122.5,122.5,122.5h245v245c0,67.4,55.1,122.5,122.5,122.5c67.4,0,122.5-55.1,122.5-122.5v-245h245c67.4,0,122.5-55.1,122.5-122.5C990,432.6,934.9,377.5,867.5,377.5L867.5,377.5z"/></g>
</svg>