<?xml version="1.0" encoding="utf-8"?>
<!-- Svg Vector Icons : http://www.onlinewebfonts.com/icon -->
<!DOCTYPE svg PUBLIC "-//W3C//DTD SVG 1.1//EN" "http://www.w3.org/Graphics/SVG/1.1/DTD/svg11.dtd">
<svg version="1.1" xmlns="http://www.w3.org/2000/svg" xmlns:xlink="http://www.w3.org/1999/xlink" x="0px" y="0px" viewBox="0 0 1000 1000" enable-background="new 0 0 1000 1000" xml:space="preserve">
<metadata> Svg Vector Icons : http://www.onlinewebfonts.com/icon </metadata>
<g><path d="M188.1,869.7c0,65,52.4,120.3,117,120.3h389.9c64.6,0,117-55.4,117-120.3l78-630.1H110.1L188.1,869.7L188.1,869.7z M622.8,361.8h76.5v506h-76.5V361.8L622.8,361.8z M453.7,361.8h92.5v506h-92.5V361.8L453.7,361.8z M300.7,361.8h76.5v506h-76.5V361.8L300.7,361.8z M870.4,86.5H616.9c0,0-17.5-76.5-39-76.5H422c-21.5,0-39,76.5-39,76.5H129.6c-32.3,0-58.5,28.2-58.5,60.7v61.5h857.8v-61.5C928.9,114.8,902.7,86.5,870.4,86.5L870.4,86.5z"/></g>
</svg>