<?xml version="1.0" encoding="UTF-8" standalone="no"?>
<!DOCTYPE svg PUBLIC "-//W3C//DTD SVG 20010904//EN"
              "http://www.w3.org/TR/2001/REC-SVG-20010904/DTD/svg10.dtd">

<svg xmlns="http://www.w3.org/2000/svg"
     width="70.5467mm"
		 height="70.5467mm"
     viewBox="0 0 200 200">
  <path id="Selection"
        stroke-width="1"
        d="M 53.00,92.00
           C 46.72,105.15 27.20,107.43 16.00,99.36
             5.60,91.87 2.61,78.59 7.48,67.00
             9.25,62.78 12.35,59.27 16.00,56.56
             20.23,53.41 24.80,52.14 30.00,52.01
             34.65,51.90 37.64,52.02 42.00,53.88
             45.04,55.17 48.73,58.25 52.00,56.96
             53.92,56.21 66.56,44.91 68.99,42.72
             71.00,40.91 73.45,38.81 73.89,36.00
             74.29,33.44 72.28,30.43 72.04,25.00
             71.60,14.96 76.54,5.63 86.00,1.53
             89.51,0.01 92.27,0.00 96.00,0.00
             110.05,0.00 119.70,8.69 119.98,23.00
             120.06,26.64 119.91,29.57 118.52,33.00
             114.79,42.23 104.93,48.38 95.00,47.90
             89.26,47.62 85.96,45.09 83.00,45.56
             79.38,46.14 69.26,55.97 66.00,58.85
             63.06,61.44 57.88,65.04 57.04,69.00
             56.71,70.54 57.95,81.42 58.77,82.61
             60.32,84.87 68.21,88.36 71.00,89.75
             71.00,89.75 100.00,104.25 100.00,104.25
             102.57,105.53 115.78,112.56 117.54,112.52
             119.96,112.47 123.33,107.75 125.04,106.01
             129.54,101.44 133.93,98.27 140.00,96.09
             166.96,86.39 196.61,106.72 194.91,136.00
             193.67,157.30 175.06,176.36 153.00,174.68
             144.70,174.04 136.77,171.78 130.00,166.84
             121.58,160.70 121.97,156.75 116.00,158.30
             116.00,158.30 96.00,166.28 96.00,166.28
             93.79,167.23 89.11,168.97 87.60,170.65
             84.66,173.90 87.33,177.93 84.52,185.00
             79.66,197.26 67.40,201.85 55.00,199.67
             38.23,196.73 31.36,175.78 39.36,162.00
             44.40,153.33 53.27,149.62 63.00,150.04
             67.77,150.25 72.13,151.73 76.00,154.55
             78.36,156.28 81.06,159.47 84.00,159.79
             86.21,160.04 91.77,157.51 94.00,156.58
             94.00,156.58 116.00,148.00 116.00,148.00
             116.00,148.00 113.91,132.00 113.91,132.00
             113.91,132.00 113.91,123.39 113.91,123.39
             113.91,123.39 97.00,113.75 97.00,113.75
             97.00,113.75 53.00,92.00 53.00,92.00 Z" />
</svg>
