<?xml version="1.0" encoding="UTF-8" standalone="no"?>
<!DOCTYPE svg PUBLIC "-//W3C//DTD SVG 20010904//EN"
              "http://www.w3.org/TR/2001/REC-SVG-20010904/DTD/svg10.dtd">

<svg xmlns="http://www.w3.org/2000/svg"
     width="180.6mm"
     height="180.6mm"
     viewBox="0 0 512 512">
  <path id="Selection"
        stroke-width="1"
        d="M 170.00,160.00
           C 156.63,164.34 142.55,165.16 129.00,160.95
             85.61,147.46 65.11,95.00 91.22,57.00
             97.13,48.39 103.22,42.37 112.00,36.70
             120.57,31.16 131.88,27.53 142.00,26.29
             147.86,25.56 150.45,26.24 156.00,26.84
             190.56,30.53 217.39,61.35 217.00,96.00
             216.85,109.20 212.63,122.32 204.84,133.00
             202.33,136.44 198.75,140.58 195.72,143.57
             194.29,144.98 191.08,147.49 190.69,149.43
             190.23,151.72 195.50,159.65 196.85,162.00
             196.85,162.00 214.94,193.00 214.94,193.00
             216.64,195.80 219.65,202.49 222.33,203.89
             225.45,205.52 229.75,202.72 238.00,203.04
             245.04,203.31 254.85,205.94 261.00,209.35
             263.83,210.92 270.24,216.27 273.00,216.05
             275.27,215.87 277.45,213.49 279.00,211.99
             279.00,211.99 291.00,200.00 291.00,200.00
             291.00,200.00 328.00,163.00 328.00,163.00
             330.47,160.53 343.11,148.32 344.04,146.42
             345.67,143.09 341.24,138.25 341.01,129.00
             340.09,90.79 386.92,71.88 411.62,102.01
             414.55,105.59 417.82,111.54 419.08,116.00
             420.00,119.27 421.05,124.63 420.90,128.00
             420.03,147.03 403.77,164.25 385.00,166.71
             379.89,167.38 374.94,166.63 370.00,165.25
             367.15,164.46 363.89,162.72 361.00,163.97
             358.06,165.25 344.29,179.71 341.00,183.00
             341.00,183.00 304.00,220.00 304.00,220.00
             301.01,222.99 289.24,234.18 287.92,237.00
             286.78,239.43 288.96,248.81 289.00,253.23
             289.00,253.23 308.00,253.23 308.00,253.23
             308.00,253.23 318.00,253.23 318.00,253.23
             318.00,253.23 328.00,253.23 328.00,253.23
             328.00,253.23 338.00,253.23 338.00,253.23
             338.00,253.23 348.00,253.23 348.00,253.23
             348.00,253.23 355.00,253.23 355.00,253.23
             355.00,253.23 366.95,253.23 366.95,253.23
             371.46,252.54 371.86,247.65 372.91,244.00
             375.11,236.36 379.11,229.32 383.90,223.00
             394.95,208.41 415.35,196.22 434.00,196.00
             446.35,195.86 455.62,196.68 467.00,202.27
             498.89,217.96 516.20,255.20 502.55,289.00
             498.61,298.74 493.39,305.60 486.00,313.00
             479.23,319.76 473.71,323.76 465.00,327.69
             455.10,332.15 446.71,333.12 436.00,333.00
             412.68,332.72 392.24,319.41 379.95,300.00
             375.38,292.78 371.72,284.61 371.00,276.00
             371.00,276.00 294.00,276.00 294.00,276.00
             282.04,276.02 285.50,278.68 278.32,288.00
             274.45,293.02 269.87,297.49 264.00,300.00
             264.00,300.00 270.27,324.00 270.27,324.00
             270.27,324.00 284.15,375.00 284.15,375.00
             284.15,375.00 292.00,406.00 292.00,406.00
             327.07,406.11 347.10,446.92 321.96,473.00
             318.03,477.07 314.20,480.17 309.00,482.49
             286.89,492.35 262.56,479.29 255.10,457.00
             253.87,453.31 254.14,451.67 253.92,448.00
             253.35,438.84 254.44,432.89 259.55,425.00
             262.22,420.86 270.48,414.14 270.11,409.96
             270.11,409.96 264.15,388.00 264.15,388.00
             264.15,388.00 248.77,331.00 248.77,331.00
             247.00,323.82 243.66,315.27 243.00,308.00
             236.57,309.82 225.18,307.98 219.00,305.42
             216.03,304.19 208.66,300.07 206.00,300.18
             202.95,300.31 193.06,306.37 190.00,308.20
             190.00,308.20 156.00,327.58 156.00,327.58
             152.24,329.52 141.76,334.41 140.20,338.10
             139.20,340.50 140.90,345.32 141.38,348.00
             142.26,352.88 142.02,358.05 142.00,363.00
             141.96,372.28 140.25,376.53 137.05,385.00
             134.18,392.60 130.80,397.79 125.56,404.00
             93.47,442.04 33.47,433.34 11.90,389.00
             8.00,380.98 5.11,372.00 5.00,363.00
             4.88,352.55 5.43,344.88 9.45,335.00
             23.02,301.69 59.39,283.09 94.00,293.77
             108.56,298.27 118.03,307.15 128.00,318.00
             133.29,312.70 153.37,302.88 161.00,298.69
             169.38,294.09 182.56,285.10 191.00,282.00
             191.00,282.00 185.77,269.00 185.77,269.00
             185.77,269.00 182.49,260.73 182.49,260.73
             182.49,260.73 174.00,257.71 174.00,257.71
             174.00,257.71 156.00,252.85 156.00,252.85
             156.00,252.85 88.00,234.00 88.00,234.00
             85.20,241.15 79.67,245.72 73.00,249.22
             50.57,260.97 22.97,249.77 16.16,225.00
             15.22,221.60 14.03,216.47 14.33,213.00
             15.88,194.93 28.28,179.87 46.00,175.65
             49.14,174.91 52.79,174.05 56.00,174.33
             70.40,175.57 81.15,182.96 88.82,195.00
             92.57,200.90 93.68,206.10 94.00,213.00
             94.00,213.00 121.00,219.85 121.00,219.85
             121.00,219.85 162.00,230.91 162.00,230.91
             162.00,230.91 188.00,238.00 188.00,238.00
             190.05,229.39 196.93,222.13 203.00,216.00
             198.42,211.97 192.77,200.72 189.51,195.00
             185.33,187.66 171.97,166.23 170.00,160.00 Z
           M 149.00,48.37
           C 149.00,48.37 138.00,49.46 138.00,49.46
             125.13,51.75 113.70,59.43 107.35,71.00
             103.14,78.67 101.90,88.39 102.00,97.00
             102.22,115.97 113.01,131.88 131.00,138.31
             136.28,140.20 138.34,140.93 144.00,141.00
             159.33,141.18 170.48,139.70 181.91,127.96
             199.51,109.89 198.95,77.79 180.71,60.32
             172.80,52.75 159.85,48.48 149.00,48.37 Z
           M 379.00,109.31
           C 374.83,110.07 370.41,110.98 367.39,114.22
             358.75,123.51 362.44,146.60 383.00,144.30
             401.94,142.18 400.84,120.46 392.90,113.23
             389.09,109.76 383.94,109.03 379.00,109.31 Z
           M 50.00,197.33
           C 46.76,198.10 43.83,198.95 41.39,201.39
             36.63,206.15 35.43,218.32 38.85,224.00
             42.93,230.76 50.55,232.98 58.00,231.67
             73.74,228.91 75.65,209.65 66.89,201.13
             62.00,196.37 56.33,196.63 50.00,197.33 Z
           M 433.00,218.29
           C 417.06,220.93 405.65,226.06 397.35,241.00
             393.21,248.44 391.91,257.61 392.00,266.00
             392.28,290.55 411.07,310.71 436.00,311.00
             444.04,311.09 451.64,310.12 459.00,306.68
             487.24,293.47 493.56,254.47 472.82,232.04
             462.81,221.22 447.35,216.93 433.00,218.29 Z
           M 235.00,225.46
           C 225.87,226.41 217.79,229.30 212.22,237.04
             198.05,256.71 210.03,287.24 236.00,286.41
             244.19,286.14 251.76,284.56 257.97,278.82
             270.11,267.55 270.30,244.37 257.97,233.18
             251.28,227.10 243.73,225.76 235.00,225.46 Z
           M 66.00,313.32
           C 55.31,315.65 45.64,319.45 38.32,328.01
             16.19,353.93 26.82,398.77 65.00,405.32
             70.39,405.97 74.52,406.42 80.00,405.32
             90.57,403.91 101.19,399.90 108.54,391.83
             126.48,372.13 123.15,336.24 101.00,320.99
             90.99,314.10 77.89,312.02 66.00,313.32 Z
           M 290.00,428.33
           C 286.20,429.24 283.05,430.33 280.22,433.21
             274.01,439.52 274.57,453.70 281.21,459.58
             284.68,462.66 292.53,463.96 297.00,463.23
             310.04,461.11 315.35,444.30 307.35,434.18
             303.22,428.97 296.25,427.69 290.00,428.33 Z" />
</svg>
